PathFileType	4	(X/Y/Z)	./resultDataOpenSim/trcMotMarkerGrf/sub06/qtm-14-02.trc
DataRate	CameraRate	NumFrames	NumMarkers	Units	OrigDataRate	OrigDataStartFrame	OrigNumFrames
250.000000	250.000000	7	24	m	250.000000	354	565
Frame#	Time	L.Toe.Tip			R.Toe.Tip			L.Ankle.Lat			R.Ankle.Lat			L.Ankle.Med			R.Ankle.Med			L.Heel			R.Heel			L.Knee.Lat			R.Knee.Lat			L.Knee.Med			R.Knee.Med			L.Thigh.Upper			R.Thigh.Upper			L.ASIS			R.ASIS			V.Sacral			L.Acromium			R.Acromium			C7			L.Elbow			R.Elbow			L.Wrist.Lat			R.Wrist.Lat
		X1	Y1	Z1	X2	Y2	Z2	X3	Y3	Z3	X4	Y4	Z4	X5	Y5	Z5	X6	Y6	Z6	X7	Y7	Z7	X8	Y8	Z8	X9	Y9	Z9	X10	Y10	Z10	X11	Y11	Z11	X12	Y12	Z12	X13	Y13	Z13	X14	Y14	Z14	X15	Y15	Z15	X16	Y16	Z16	X17	Y17	Z17	X18	Y18	Z18	X19	Y19	Z19	X20	Y20	Z20	X21	Y21	Z21	X22	Y22	Z22	X23	Y23	Z23	X24	Y24	Z24

354	1.412	0.7223322	0.12241895	-0.11818878	0.91444656	0.034938176	0.040530747	0.69500481	0.25271022	-0.14040486	0.77960002	0.066874424	0.07221604	0.72553469	0.25844724	-0.061229853	0.79745966	0.09198728	-0.013267187	0.64246183	0.29599614	-0.081316681	0.72185816	0.050993901	0.014865608	0.9883844	0.48056667	-0.19468568	0.8767105	0.44499986	0.11222164	1.0017404	0.47043005	-0.066565575	0.83192763	0.44318204	-0.012182536	0.80542376	0.83210566	-0.16055871	0.84509101	0.8177522	0.18299503	0.87891567	0.8807392	-0.11843063	0.92202311	0.87886845	0.11800022	0.71709378	0.95193646	0.035483362	0.86072796	1.3647739	-0.17202103	0.89547582	1.3419413	0.18494241	0.79811724	1.3944993	0.017240799	0.80646344	1.0499742	-0.23834634	0.82390453	1.0345545	0.27808827	0.96262181	0.86013819	-0.26518314	1.0335512	0.89683635	0.2844554
355	1.416	0.73749178	0.12103772	-0.12009342	0.91442852	0.034946348	0.040578556	0.70776292	0.25084106	-0.14169988	0.77974912	0.067509026	0.072398139	0.73792411	0.25677599	-0.062415	0.79775177	0.092582712	-0.013131717	0.65423069	0.29275237	-0.082718729	0.72211408	0.051945396	0.015018024	0.99779759	0.48388534	-0.19375982	0.87672692	0.44573977	0.11205185	1.010155	0.47418752	-0.065758218	0.8318286	0.44406984	-0.012535907	0.81167812	0.83437032	-0.16127282	0.84840815	0.81842262	0.18263424	0.8847674	0.88274272	-0.11850778	0.92628097	0.87979925	0.11826101	0.72232274	0.95316213	0.034845257	0.86510737	1.3660415	-0.1722495	0.90017072	1.3438313	0.18462184	0.80269931	1.3958748	0.017007303	0.80904734	1.0519665	-0.23821653	0.83160758	1.03584	0.27885418	0.96170282	0.85980035	-0.26717605	1.0449328	0.90298024	0.282462
356	1.42	0.75282043	0.11954582	-0.12196132	0.91440439	0.034939712	0.04064471	0.72056162	0.24879619	-0.14297018	0.77992221	0.068152878	0.072540755	0.75032276	0.25495098	-0.063580689	0.79811014	0.093172646	-0.013036011	0.66605877	0.2893048	-0.084156119	0.7224637	0.052923743	0.015131057	1.0071052	0.48707496	-0.19273661	0.87683675	0.44648842	0.11188512	1.0181765	0.47779599	-0.064933101	0.83175104	0.44505834	-0.012852083	0.81822914	0.83652179	-0.16178514	0.8516338	0.81896572	0.18233454	0.89068356	0.88463088	-0.11856125	0.93048123	0.88063212	0.11856311	0.72756565	0.95430225	0.034174287	0.8695249	1.3672559	-0.17249635	0.90484777	1.34562	0.18431578	0.80727424	1.3971735	0.016759425	0.811655	1.05387	-0.23810263	0.83928466	1.0369951	0.27953017	0.96080503	0.85947403	-0.26909385	1.0560022	0.90902539	0.2805654
357	1.424	0.7684047	0.11798791	-0.12380873	0.91437123	0.034926746	0.040730776	0.73347076	0.24658663	-0.14425757	0.7801192	0.068801248	0.072633943	0.76270794	0.25298636	-0.064711428	0.798475	0.093779303	-0.012955024	0.67797666	0.28566166	-0.085652705	0.72279693	0.053880523	0.01522695	1.0162596	0.49014674	-0.1916955	0.87709137	0.4472646	0.11169931	1.0259478	0.48125625	-0.064078968	0.83184257	0.44608245	-0.01314935	0.82530943	0.83852023	-0.16199729	0.85477839	0.81944282	0.18213906	0.89657743	0.88639507	-0.11859354	0.93469562	0.88138671	0.11889588	0.73279891	0.95537387	0.033445554	0.87396689	1.3684133	-0.17275601	0.90950297	1.3473085	0.18401997	0.81185158	1.3983993	0.016516731	0.81427838	1.0556874	-0.23800896	0.84700597	1.03804	0.2801478	0.95992884	0.85915851	-0.27093845	1.0668673	0.91501481	0.27866038
358	1.428	0.78427703	0.11641086	-0.12563099	0.91433962	0.034923254	0.04083187	0.74650135	0.24422582	-0.1455658	0.78033507	0.06944912	0.072680393	0.77501728	0.25089525	-0.065783805	0.79882086	0.094428981	-0.012867488	0.68999825	0.28181089	-0.087205484	0.72307766	0.054813012	0.015292771	1.025268	0.49309941	-0.19067322	0.87746579	0.44804773	0.11150327	1.0335857	0.48457707	-0.063192838	0.83227012	0.44704257	-0.013446821	0.83261938	0.84034956	-0.16210897	0.85793448	0.81997618	0.18194081	0.90238496	0.88803342	-0.11860062	0.93889712	0.88205619	0.11926509	0.73802971	0.95636991	0.03264482	0.87842454	1.3695016	-0.17302357	0.91413204	1.348895	0.18372969	0.81643612	1.3995525	0.016283165	0.81691183	1.057432	-0.23793295	0.85483472	1.0390179	0.28077089	0.95907625	0.85885693	-0.27270817	1.0776102	0.92098985	0.27667562
359	1.432	0.80045055	0.11482307	-0.12744206	0.91433699	0.03493595	0.040932091	0.75963596	0.2417193	-0.14687797	0.78055121	0.070096529	0.072694157	0.78726599	0.2486768	-0.066803955	0.79912476	0.095125252	-0.012760623	0.70209893	0.27774789	-0.088788457	0.72331356	0.055741249	0.015312928	1.0341496	0.495924	-0.18964889	0.87779743	0.44876886	0.11135338	1.0411188	0.48776325	-0.062278852	0.83303678	0.44789414	-0.013770621	0.83952457	0.84205071	-0.16249179	0.86121107	0.82063185	0.18155572	0.90811998	0.88955467	-0.11858985	0.94304962	0.88263423	0.11967876	0.74324702	0.95728126	0.031765216	0.88290058	1.3705107	-0.17329337	0.91873641	1.350379	0.18344489	0.82102848	1.4006304	0.016049147	0.81955711	1.059113	-0.23786388	0.86277235	1.0399549	0.28143386	0.95824129	0.85858159	-0.27441165	1.088246	0.92696254	0.27460683
360	1.436	0.81689449	0.11320862	-0.12925396	0.91439618	0.034954847	0.041010592	0.77286688	0.23906884	-0.14818623	0.78073003	0.070754374	0.0726983	0.79956789	0.24631821	-0.067808823	0.79936202	0.095854579	-0.012628255	0.71424554	0.27347952	-0.090374599	0.72354308	0.056685638	0.015304726	1.0429317	0.49861441	-0.18858133	0.87794249	0.44938929	0.11128652	1.0486473	0.49081377	-0.0613278	0.83400614	0.44868236	-0.014144809	0.84581178	0.84367644	-0.16325239	0.86461119	0.82133523	0.18096101	0.91390025	0.89097434	-0.11859074	0.94721589	0.88316269	0.12012369	0.74838296	0.95810985	0.030817132	0.88740023	1.3714363	-0.17356336	0.92332017	1.351761	0.1831657	0.82562275	1.4016328	0.015801724	0.82221834	1.0607313	-0.23779104	0.87077294	1.0408413	0.28211876	0.95741269	0.8583444	-0.27606745	1.0987478	0.93291666	0.27246879
